<svg xmlns="http://www.w3.org/2000/svg" width="32" height="32" viewBox="0 0 400 400"><path d="M199.9 110.727c-.744.085-1.1.358-1.1.844 0 .394-.432 1.354-.96 2.132s-1.082 1.799-1.231 2.269c-.149.469-.707 1.324-1.24 1.899s-.969 1.345-.969 1.71-.45 1.782-.152.692-.626 1.575-1.054 1.962-.427.386-.777.997-.777 1.356 0 .359-.533 1.276-1.184 2.038-.651.762-1.191 1.676-1.2 2.031-.009.355-.376 1.104-.816 1.663-.44.56-.8 1.222-.8 1.472 0 .251-.434.889-.964 1.42-.531.53-1.081 1.493-1.223 2.14-.142.647-.608 1.493-1.036 1.88-.427.386-.777 1.003-.777 1.369 0 .366-.54 1.271-1.2 2.01-.66.739-1.2 1.647-1.2 2.018 0 .371-.327 1.103-.727 1.628-.4.525-.962 1.539-1.249 2.254-.286.715-.749 1.3-1.028 1.3-.627.64-.774 1.422c-.147.783-.617 1.773-1.044 2.2-.428.428-.778 1.034-.778 1.347 0 .313-.429 1.08-.954 1.704-.525.623-1.252 1.762-1.616 2.53-1.286 2.718-2.114 4.123-2.684 4.557-.318.242-.806 1.215-1.084 2.161-.279.947-.767 1.821-1.084 1.943-.318.122-.578.538-.578.924s-.54 1.381-1.2 2.212c-.66.831-1.2 1.823-1.2 2.206s-.285.933-.634 1.222c-.349.29-.909 1.212-1.244 2.049-.335.838-.839 1.523-1.121 1.523-.282 0-.632.64-.779 1.422-.147.783-.617 1.773-1.044 2.2-.428.428-.778 1.023-.778 1.323 0 .3-.54 1.224-1.2 2.055-.66.831-1.2 1.811-1.2 2.18 0 .368-.36 1.056-.8 1.528-.44.472-.8 1.054-.8 1.293 0 .24-.413.848-.917 1.353-.505.504-1.145 1.676-1.423 2.603-.278.927-.765 1.785-1.082 1.907-.318.122-.578.538-.578.924s-.54 1.381-1.2 2.212c-.66.831-1.2 1.817-1.2 2.193 0 .376-.35 1-.777 1.386-.428.387-.892 1.227-1.033 1.866-.14.639-.577 1.334-.97 1.544-.393.21-.822.923-.955 1.584-.132.661-.58 1.542-.995 1.957-.415.415-.875 1.235-1.022 1.822-.148.588-.603 1.403-1.012 1.812-.409.409-.962 1.407-1.23 2.218-.268.811-.727 1.566-1.022 1.679-.294.113-.655.753-.802 1.421-.156.71-.582 1.297-1.024 1.413-.417.109-.758.546-.758.972 0 .942-1.091 3.133-1.56 3.133-.187 0-.44.5-.562 1.112-.123.611-.685 1.61-1.25 2.22-.566.61-1.028 1.46-1.028 1.889 0 .428-.355 1.134-.79 1.569-.434.434-.905 1.249-1.046 1.81-.141.562-.572 1.19-.957 1.396-.386.207-.809.916-.942 1.577-.132.661-.58 1.542-.995 1.957-.415.415-.875 1.235-1.022 1.822-.148.588-.597 1.397-.998 1.798s-.93 1.305-1.176 2.009c-.245.703-.812 1.744-1.26 2.314-.448.569-.814 1.274-.814 1.567 0 .292-.336.712-.747.932-.411.22-.855.94-.988 1.601-.132.661-.58 1.542-.995 1.957-.415.415-.872 1.223-1.015 1.795-.144.573-.71 1.525-1.258 2.116-.549.592-.997 1.375-.997 1.74s-.45 1.274-1 2.019c-.55.745-1 1.563-1 1.816 0 .253-.36.786-.8 1.184-.44.398-.8.941-.8 1.206s-.448 1.142-.995 1.949c-.547.806-1.108 1.915-1.246 2.465-.138.549-.559 1.219-.936 1.489-.976.699-1.676 2.878-1.107 3.447.311.311 5.535.444 17.489.444h17.045l1.038-1.1c.571-.605 1.328-1.73 1.683-2.5.872-1.891 2.277-4.12 3.129-4.964.385-.381.7-1.016.7-1.411 0-.394.335-1.146.745-1.671.41-.525.872-1.36 1.028-1.856.155-.496.695-1.396 1.2-2 .505-.604 1.057-1.548 1.227-2.098.171-.55.645-1.429 1.055-1.954.41-.525.745-1.178.745-1.451 0-.273.295-.742.655-1.04.36-.299.999-1.266 1.42-2.149a64.841 64.841 0 0 1 1.846-3.492c.593-1.037 1.868-3.287 2.832-5 .964-1.713 2.089-3.436 2.5-3.83.411-.393.747-1.033.747-1.422s.45-1.317 1-2.062c.55-.745 1-1.568 1-1.829 0-.26.295-.718.655-1.016.36-.299.997-1.266 1.417-2.149 1.641-3.457 2.666-5.256 3.283-5.769.355-.294.645-.838.645-1.208 0-.371.45-1.284 1-2.029.55-.745 1-1.568 1-1.829 0-.26.295-.718.655-1.016.36-.299.998-1.266 1.417-2.149 1.417-2.983 2.525-4.898 3.228-5.582.385-.375.7-.948.7-1.274 0-.326.45-1.255 1-2.064.55-.809 1-1.678 1-1.93s.295-.703.655-1.001c.36-.299.998-1.266 1.417-2.149 1.417-2.983 2.525-4.898 3.228-5.582.385-.375.7-.974.7-1.331 0-.585.654-1.724 2.835-4.939.39-.575.999-1.655 1.353-2.4 1.492-3.139 2.35-4.575 3.008-5.036.384-.269.803-1.014.931-1.655.129-.642.499-1.432.824-1.756.324-.325.883-1.202 1.241-1.949.358-.747 1.182-2.258 1.832-3.358.649-1.1 1.477-2.675 1.839-3.5.362-.825.795-1.5.963-1.5.168 0 .984-1.374 1.813-3.053.83-1.68 1.805-3.345 2.166-3.7.361-.356.9-1.277 1.199-2.047.298-.77.869-1.829 1.269-2.354.4-.525.727-1.168.727-1.43s.45-.899 1-1.416c.55-.517 1-1.233 1-1.592s.45-1.263 1-2.008c.55-.745 1-1.583 1-1.862 0-.279.329-.829.731-1.222.401-.394.976-1.346 1.277-2.116.301-.77.918-1.91 1.37-2.534 1.236-1.704 1.116-4.51-.278-6.522-.605-.873-1.1-1.87-1.1-2.217 0-.346-.283-.864-.629-1.151-.346-.287-1.021-1.24-1.5-2.118-.479-.878-1.442-2.6-2.139-3.827-.697-1.227-1.466-2.657-1.708-3.178-.242-.521-.796-1.4-1.232-1.954-.436-.554-.792-1.315-.792-1.691 0-.376-.346-.997-.769-1.38-.423-.383-1.441-2.076-2.262-3.762-.82-1.686-1.777-3.397-2.125-3.802a8.464 8.464 0 0 1-1.039-1.6c-.298-.636-.695-.831-1.505-.737m42.552 77.656c-.261.871-.644 1.688-.852 1.817-.207.128-.732 1.036-1.166 2.017-.434.98-.972 1.783-1.196 1.783-.224 0-.599.712-.833 1.583-.235.871-.609 1.696-.833 1.834-.223.138-.688.956-1.032 1.817-.345.861-.857 1.566-1.139 1.566-.282 0-.632.64-.779 1.422-.147.783-.591 1.747-.986 2.142-.396.396-.838 1.191-.983 1.767-.144.576-.594 1.367-.998 1.758-.405.391-.936 1.304-1.181 2.03-.245.725-.812 1.784-1.26 2.354-.448.569-.814 1.224-.814 1.455 0 .231-.343.792-.762 1.246-1.57 1.703-1.839 7.026-.355 7.026.196 0 .67.675 1.053 1.5.383.825 1.094 2.13 1.579 2.9.485.77.883 1.672.884 2.004 0 .332.338.814.751 1.072.412.257.866.935 1.01 1.506.143.571.616 1.394 1.05 1.828.435.435.79 1.141.79 1.569 0 .429.444 1.259.987 1.845.543.586 1.108 1.45 1.255 1.921.148.47.603 1.284 1.013 1.809.91 1.165.965 2.969.116 3.817-.546.546-2.36.629-13.812.629-12.207 0-13.2.052-13.401.7-.119.385-.484 1.15-.809 1.7-.326.55-.859 1.593-1.183 2.317-.325.725-.838 1.412-1.139 1.528-.302.116-.66.803-.796 1.528-.135.724-.593 1.631-1.016 2.014-.423.383-.879 1.195-1.013 1.804-.134.61-.684 1.523-1.223 2.028-.538.506-.979 1.311-.979 1.789 0 .477-.35 1.185-.777 1.571-.428.387-.892 1.227-1.033 1.866-.14.639-.577 1.334-.97 1.544-.393.21-.822.923-.955 1.584-.132.661-.58 1.542-.995 1.957-.415.415-.875 1.235-1.022 1.822-.148.588-.597 1.397-.998 1.798-1.121 1.121-1.708 3.104-1.074 3.63.575.477 99.946.431 100.424-.047.147-.146-.063-.599-.467-1.006" fill="#121212" fill-rule="evenodd"/></svg>